<svg width="71" height="107" viewBox="0 0 71 107" fill="none" xmlns="http://www.w3.org/2000/svg">
<path d="M0 106.5V102.3H30V82.5H26.1C18.879 82.5 12.724 79.955 7.635 74.865C2.545 69.776 0 63.621 0 56.4C0 51.02 1.575 46.125 4.725 41.715C7.875 37.305 12 34.1 17.1 32.1C17.1 27.8 18.85 24.5 22.35 22.2C25.85 19.9 29.5 19.6 33.3 21.3L29.1 9.9L34.8 7.8L32.7 2.1L38.4 0L40.5 5.7L45.6 3.9L60 43.2L54.9 45.3L57 51L51.3 53.1L49.2 47.4L43.5 49.8L39.6 38.4C38.5 40.2 37.025 41.65 35.175 42.75C33.325 43.85 31.3 44.4 29.1 44.4C26.5 44.4 24.175 43.65 22.125 42.15C20.075 40.65 18.6 38.7 17.7 36.3C13.6 38 10.325 40.65 7.875 44.25C5.425 47.85 4.2 51.9 4.2 56.4C4.2 62.483 6.329 67.654 10.587 71.913C14.846 76.171 20.017 78.3 26.1 78.3H70.2V82.5H34.2V102.3H70.2V106.5H0ZM46.2 44.1L54.6 40.8L43.2 9.3L34.5 12.3L46.2 44.1ZM29.0895 40.2C31.2965 40.2 33.15 39.4535 34.65 37.9605C36.15 36.4675 36.9 34.6175 36.9 32.4105C36.9 30.2035 36.1535 28.35 34.6605 26.85C33.1675 25.35 31.3175 24.6 29.1105 24.6C26.9035 24.6 25.05 25.3465 23.55 26.8395C22.05 28.3325 21.3 30.1825 21.3 32.3895C21.3 34.5965 22.0465 36.45 23.5395 37.95C25.0325 39.45 26.8825 40.2 29.0895 40.2Z" fill="#1C1B1F"/>
</svg>
