<svg width="88" height="91" viewBox="0 0 88 91" fill="none" xmlns="http://www.w3.org/2000/svg">
<path d="M58.8885 35.25C57.5295 35.25 56.375 34.773 55.425 33.819C54.475 32.865 54 31.717 54 30.375C54 29.511 54.1 28.7575 54.3 28.1145C54.5 27.4715 54.8125 26.8375 55.2375 26.2125C55.6625 25.5875 56.175 24.9125 56.775 24.1875C57.375 23.4625 58.075 22.625 58.875 21.675C59.675 22.625 60.3875 23.4625 61.0125 24.1875C61.6375 24.9125 62.15 25.5875 62.55 26.2125C62.95 26.8375 63.2625 27.4715 63.4875 28.1145C63.7125 28.7575 63.825 29.511 63.825 30.375C63.825 31.717 63.342 32.865 62.376 33.819C61.41 34.773 60.2475 35.25 58.8885 35.25ZM82.8885 17.25C81.5295 17.25 80.375 16.773 79.425 15.819C78.475 14.865 78 13.717 78 12.375C78 11.511 78.1 10.7575 78.3 10.1145C78.5 9.4715 78.8125 8.8375 79.2375 8.2125C79.6625 7.5875 80.175 6.9125 80.775 6.1875C81.375 5.4625 82.075 4.625 82.875 3.675C83.675 4.625 84.3875 5.4625 85.0125 6.1875C85.6375 6.9125 86.15 7.5875 86.55 8.2125C86.95 8.8375 87.2625 9.4715 87.4875 10.1145C87.7125 10.7575 87.825 11.511 87.825 12.375C87.825 13.717 87.342 14.865 86.376 15.819C85.41 16.773 84.2475 17.25 82.8885 17.25ZM82.8885 53.25C81.5295 53.25 80.375 52.773 79.425 51.819C78.475 50.865 78 49.717 78 48.375C78 47.511 78.1 46.7575 78.3 46.1145C78.5 45.4715 78.8125 44.8375 79.2375 44.2125C79.6625 43.5875 80.175 42.9125 80.775 42.1875C81.375 41.4625 82.075 40.625 82.875 39.675C83.675 40.625 84.3875 41.4625 85.0125 42.1875C85.6375 42.9125 86.15 43.5875 86.55 44.2125C86.95 44.8375 87.2625 45.4715 87.4875 46.1145C87.7125 46.7575 87.825 47.511 87.825 48.375C87.825 49.717 87.342 50.865 86.376 51.819C85.41 52.773 84.2475 53.25 82.8885 53.25ZM21.564 90.675C15.538 90.675 10.4375 88.5965 6.2625 84.4395C2.0875 80.2835 0 75.187 0 69.15C0 65.245 1.05 61.569 3.15 58.122C5.25 54.674 8.175 51.875 11.925 49.725V9.6C11.925 6.9 12.8385 4.625 14.6655 2.775C16.4925 0.925 18.804 0 21.6 0C24.3 0 26.575 0.925 28.425 2.775C30.275 4.625 31.2 6.9 31.2 9.6V49.725C34.95 51.875 37.875 54.674 39.975 58.122C42.075 61.569 43.125 65.245 43.125 69.15C43.125 75.187 41.038 80.2835 36.864 84.4395C32.69 88.5965 27.59 90.675 21.564 90.675ZM3.825 69.15H39.3C39.3 66.2 38.438 63.306 36.714 60.468C34.99 57.631 32.502 55.025 29.25 52.65L27.375 51.3V9.6C27.375 8.008 26.81 6.6475 25.68 5.5185C24.549 4.3895 23.1865 3.825 21.5925 3.825C19.9475 3.825 18.5625 4.3895 17.4375 5.5185C16.3125 6.6475 15.75 8.008 15.75 9.6V51.3L13.875 52.65C10.625 55 8.1375 57.6 6.4125 60.45C4.6875 63.3 3.825 66.2 3.825 69.15Z" fill="#1C1B1F"/>
</svg>
