<svg width="81" height="91" viewBox="0 0 81 91" fill="none" xmlns="http://www.w3.org/2000/svg">
<path d="M50.7 79.35C52.4 79.35 54.05 79.025 55.65 78.375C57.25 77.725 58.65 76.8 59.85 75.6L64.05 71.4L61.05 68.4L56.85 72.6C56.05 73.4 55.1 74 54 74.4C52.9 74.8 51.8 75 50.7 75C49.6 75 48.5 74.8 47.4 74.4C46.3 74 45.35 73.4 44.55 72.6L38.85 66.9C37.65 65.7 36.25 64.825 34.65 64.275C33.05 63.725 31.4 63.45 29.7 63.45C28 63.45 26.35 63.725 24.75 64.275C23.15 64.825 21.75 65.7 20.55 66.9L16.35 71.1L19.35 74.1L23.55 69.9C24.35 69.1 25.3 68.5 26.4 68.1C27.5 67.7 28.6 67.5 29.7 67.5C30.8 67.5 31.9 67.7 33 68.1C34.1 68.5 35.05 69.1 35.85 69.9L41.55 75.6C42.75 76.8 44.15 77.725 45.75 78.375C47.35 79.025 49 79.35 50.7 79.35ZM50.7 63C52.4 63 54.05 62.675 55.65 62.025C57.25 61.375 58.65 60.45 59.85 59.25L64.05 55.05L61.05 52.05L56.85 56.25C56.05 57.05 55.1 57.65 54 58.05C52.9 58.45 51.8 58.65 50.7 58.65C49.6 58.65 48.5 58.45 47.4 58.05C46.3 57.65 45.35 57.05 44.55 56.25L38.85 50.55C37.65 49.35 36.25 48.475 34.65 47.925C33.05 47.375 31.4 47.1 29.7 47.1C28 47.1 26.35 47.375 24.75 47.925C23.15 48.475 21.75 49.35 20.55 50.55L16.35 54.75L19.35 57.75L23.55 53.55C24.35 52.75 25.3 52.15 26.4 51.75C27.5 51.35 28.6 51.15 29.7 51.15C30.8 51.15 31.9 51.35 33 51.75C34.1 52.15 35.05 52.75 35.85 53.55L41.55 59.25C42.75 60.45 44.15 61.375 45.75 62.025C47.35 62.675 49 63 50.7 63ZM50.7 46.65C52.4 46.65 54.05 46.325 55.65 45.675C57.25 45.025 58.65 44.1 59.85 42.9L64.05 38.7L61.05 35.7L56.85 39.9C56.05 40.7 55.1 41.3 54 41.7C52.9 42.1 51.8 42.3 50.7 42.3C49.6 42.3 48.5 42.1 47.4 41.7C46.3 41.3 45.35 40.7 44.55 39.9L38.85 34.2C37.65 33 36.25 32.125 34.65 31.575C33.05 31.025 31.4 30.75 29.7 30.75C28 30.75 26.35 31.025 24.75 31.575C23.15 32.125 21.75 33 20.55 34.2L16.35 38.4L19.35 41.4L23.55 37.2C24.35 36.4 25.3 35.8 26.4 35.4C27.5 35 28.6 34.8 29.7 34.8C30.8 34.8 31.9 35 33 35.4C34.1 35.8 35.05 36.4 35.85 37.2L41.55 42.9C42.75 44.1 44.15 45.025 45.75 45.675C47.35 46.325 49 46.65 50.7 46.65ZM0 90.6V30.3L40.2 0L80.4 30.3V90.6H0ZM4.2 86.4H76.2V32.4L40.2 5.4L4.2 32.4V86.4Z" fill="#1C1B1F"/>
</svg>
