<svg width="22" height="25" viewBox="0 0 22 25" fill="none" xmlns="http://www.w3.org/2000/svg">
<path d="M1.3125 25C0.958333 25 0.651042 24.8698 0.390625 24.6094C0.130208 24.349 0 24.0417 0 23.6875V20.4062C0 18.5312 0.583333 16.875 1.75 15.4375C2.91667 14 4.41667 13.0833 6.25 12.6875C5.41667 13.2708 4.77083 14.0052 4.3125 14.8906C3.85417 15.776 3.625 16.7292 3.625 17.75V23.6875C3.625 23.9167 3.65625 24.1458 3.71875 24.375C3.78125 24.6042 3.88542 24.8125 4.03125 25H1.3125ZM5.90625 25C5.55208 25 5.24479 24.8698 4.98438 24.6094C4.72396 24.349 4.59375 24.0417 4.59375 23.6875V17.75C4.59375 16.2917 5.10938 15.0521 6.14062 14.0312C7.17188 13.0104 8.41667 12.5 9.875 12.5H15.7812C17.2396 12.5 18.4792 13.0104 19.5 14.0312C20.5208 15.0521 21.0312 16.2917 21.0312 17.75V19.75C21.0312 21.2083 20.5208 22.4479 19.5 23.4688C18.4792 24.4896 17.2396 25 15.7812 25H5.90625ZM10.5312 9.875C9.15625 9.875 7.98958 9.39583 7.03125 8.4375C6.07292 7.47917 5.59375 6.3125 5.59375 4.9375C5.59375 3.5625 6.07292 2.39583 7.03125 1.4375C7.98958 0.479167 9.15625 0 10.5312 0C11.9062 0 13.0729 0.479167 14.0312 1.4375C14.9896 2.39583 15.4688 3.5625 15.4688 4.9375C15.4688 6.3125 14.9896 7.47917 14.0312 8.4375C13.0729 9.39583 11.9062 9.875 10.5312 9.875Z" fill="#E6FFBD"/>
</svg>
