<svg width="27" height="24" viewBox="0 0 27 24" fill="none" xmlns="http://www.w3.org/2000/svg">
<path d="M25 20.875L21.25 17.125L23 15.375L26.75 19.125L25 20.875ZM20.5 5.875L18.75 4.125L22.5 0.375L24.25 2.125L20.5 5.875ZM6.25 5.875L2.5 2.125L4.25 0.375L8 4.125L6.25 5.875ZM1.75 20.875L0 19.125L3.75 15.375L5.5 17.125L1.75 20.875ZM5.65625 23.75L7.6875 14.9688L0.875 9.0625L9.875 8.28125L13.375 0L16.875 8.28125L25.875 9.0625L19.0625 14.9688L21.0938 23.75L13.375 19.0938L5.65625 23.75Z" fill="#E6FFBD"/>
</svg>
