<svg width="203" height="32" viewBox="0 0 203 32" fill="none" xmlns="http://www.w3.org/2000/svg">
<path d="M24.5249 9.46269V14.8885H29.343C30.6018 14.8885 31.687 13.8468 31.687 12.5446V2.34397C31.687 1.04176 30.6452 0 29.343 0H19.099C17.8402 0 16.755 1.04176 16.755 2.34397V7.16213H22.1809C23.4831 7.11872 24.5249 8.16049 24.5249 9.46269ZM7.11872 9.46269V14.8885H2.34397C1.08517 14.8885 0 13.8468 0 12.5446V2.34397C0 1.04176 1.04176 0 2.34397 0H12.588C13.8468 0 14.932 1.04176 14.932 2.34397V7.16213H9.46269C8.16049 7.11872 7.11872 8.16049 7.11872 9.46269Z" fill="#007BC2"/>
<path d="M7.11872 22.2247V16.7988H2.34397C1.08517 16.7988 0 17.8405 0 19.1428V29.3868C0 30.689 1.04176 31.7307 2.34397 31.7307H12.588C13.8468 31.7307 14.932 30.689 14.932 29.3868V24.5686H9.46269C8.16049 24.5686 7.11872 23.5269 7.11872 22.2247ZM24.5249 22.2247V16.7988H29.343C30.6018 16.7988 31.687 17.8405 31.687 19.1428V29.3868C31.687 30.689 30.6452 31.7307 29.343 31.7307H19.099C17.8402 31.7307 16.755 30.689 16.755 29.3868V24.5686H22.1809C23.4831 24.5686 24.5249 23.5269 24.5249 22.2247Z" fill="#1D8553"/>
<path d="M86.9004 23.9169H86.9438L86.9004 23.8301V23.9169Z" fill="#555555"/>
<path d="M52.5211 19.0552C52.0002 22.6145 49.5694 24.7848 45.9666 24.7848C41.0184 24.7848 38.8047 20.1838 38.8047 15.7997C38.8047 11.4156 41.0184 6.81445 45.9666 6.81445C49.526 6.81445 51.9568 8.85457 52.5211 12.5442L49.2222 12.9782C48.8749 11.1551 48.0936 9.54908 45.9666 9.54908C42.9717 9.54908 42.3641 13.5425 42.3641 15.7562C42.3641 17.97 42.9717 21.9634 45.9666 21.9634C48.0502 21.9634 48.8749 20.314 49.2222 18.5343L52.5211 19.0552Z" fill="#555555"/>
<path d="M57.8185 7.11914H54.5195V24.5253H57.8185V7.11914Z" fill="#555555"/>
<path d="M67.5843 16.9725C67.5843 15.5835 67.02 14.1945 65.4573 14.1945C63.9381 14.1945 63.3738 15.6703 63.287 16.9725H67.5843ZM63.1568 19.056C63.0266 20.5753 63.9381 22.3549 65.631 22.3549C66.6727 22.3549 67.3672 21.6604 67.7145 20.5319L70.7964 20.8791C70.1019 23.3533 67.6711 24.7857 65.3271 24.7857C61.6809 24.7857 59.8145 21.5736 59.8145 18.2747C59.8145 14.9758 61.6375 11.7637 65.3271 11.7637C68.4958 11.7637 70.8832 13.2829 70.7964 19.0994L63.1568 19.056Z" fill="#555555"/>
<path d="M91.1116 16.9725C91.1116 15.5835 90.5473 14.1945 88.9847 14.1945C87.4654 14.1945 86.9012 15.6703 86.8143 16.9725H91.1116ZM86.6841 19.056C86.5539 20.5753 87.4654 22.3549 89.1583 22.3549C90.2001 22.3549 90.8946 21.6604 91.2418 20.5319L94.3237 20.8791C93.6292 23.3533 91.1984 24.7857 88.8545 24.7857C85.2083 24.7857 83.3418 21.5736 83.3418 18.2747C83.3418 14.9758 85.1649 11.7637 88.8545 11.7637C92.0232 11.7637 94.4105 13.2829 94.3237 19.0994L86.6841 19.056Z" fill="#555555"/>
<path d="M79.0003 24.5246H75.5277L71.6211 12.0234H75.0936L77.3074 21.2691H77.3508L79.4777 12.0234H82.7767L79.0003 24.5246Z" fill="#555555"/>
<path d="M99.879 7.11914H96.5801V24.5253H99.879V7.11914Z" fill="#555555"/>
<path d="M109.17 18.7956C107.824 19.056 105.089 19.1862 105.089 21.0093C105.089 21.7472 105.437 22.3549 106.218 22.3549C107.564 22.3549 108.519 21.5302 109.17 20.7055V18.7956ZM109.343 23.3967C108.128 24.2648 107.347 24.8291 105.784 24.8291C103.614 24.8291 101.834 23.3533 101.834 21.1396C101.834 17.6236 106.479 16.8857 109.126 16.5818C109.343 14.8456 108.779 14.1945 107.52 14.1945C106.479 14.1945 105.697 14.6719 105.524 15.7571L102.355 15.2796C103.093 12.6318 104.872 11.7637 107.52 11.7637C110.906 11.7637 112.425 13.3697 112.425 15.7137V21.9209C112.425 22.8324 112.469 23.7006 112.859 24.5253H109.691C109.474 23.961 109.343 23.3967 109.343 23.3967Z" fill="#555555"/>
<path d="M118.457 13.3263C119.498 12.4582 120.801 11.7637 122.19 11.7637C123.579 11.7637 125.489 12.5884 125.489 15.6703V24.5253H122.19V17.0159C122.19 16.0175 122.276 14.4115 120.844 14.4115C119.889 14.4115 119.108 15.106 118.5 15.7571V24.5253H115.201V12.0241H118.5L118.457 13.3263Z" fill="#555555"/>
<path d="M159.607 19.0552C159.086 22.6145 156.656 24.7848 153.053 24.7848C148.104 24.7848 145.891 20.1838 145.891 15.7997C145.891 11.4156 148.104 6.81445 153.053 6.81445C156.612 6.81445 159.043 8.85457 159.607 12.5442L156.308 12.9782C155.961 11.1551 155.18 9.54908 153.053 9.54908C150.058 9.54908 149.45 13.5425 149.45 15.7562C149.45 17.97 150.058 21.9634 153.053 21.9634C155.136 21.9634 155.961 20.314 156.308 18.5343L159.607 19.0552Z" fill="#555555"/>
<path d="M164.945 7.11914H161.646V24.5253H164.945V7.11914Z" fill="#555555"/>
<path d="M171.022 24.5253H167.723V12.0241H171.022V24.5253ZM171.022 10.1576H167.723V7.11914H171.022V10.1576Z" fill="#555555"/>
<path d="M177.013 13.3263C178.055 12.4582 179.357 11.7637 180.746 11.7637C182.135 11.7637 184.045 12.5884 184.045 15.6703V24.5253H180.746V17.0159C180.746 16.0175 180.833 14.4115 179.401 14.4115C178.446 14.4115 177.664 15.106 177.057 15.7571V24.5253H173.758V12.0241H177.057V13.3263H177.013Z" fill="#555555"/>
<path d="M190.078 24.5253H186.779V12.0241H190.078V24.5253ZM190.078 10.1576H186.779V7.11914H190.078V10.1576Z" fill="#555555"/>
<path d="M202.884 20.4884C202.363 23.0929 200.453 24.7857 197.675 24.7857C194.029 24.7857 192.162 21.5736 192.162 18.2747C192.162 14.9758 193.985 11.7637 197.675 11.7637C200.453 11.7637 202.363 13.4565 202.884 16.0609L199.889 16.4516C199.671 15.4533 199.324 14.151 197.675 14.151C195.895 14.151 195.591 16.6686 195.591 18.2313C195.591 19.7939 195.895 22.3115 197.675 22.3115C199.368 22.3115 199.585 21.183 199.889 20.0544L202.884 20.4884Z" fill="#555555"/>
<path d="M135.429 20.5753C134.908 21.3566 134.257 22.0077 133.302 22.0077C131.305 22.0077 131.045 19.5769 131.045 18.1011C131.045 16.7121 131.435 14.3681 133.258 14.3681C134.213 14.3681 134.908 15.0192 135.472 15.7137L135.429 20.5753ZM138.771 22.3115V7.11914H135.472V13.2395C134.517 12.4148 133.736 11.7203 132.39 11.7203C130.567 11.7203 127.789 13.3263 127.789 17.9274C127.789 23.2231 130.133 24.7857 132.651 24.7857C134.04 24.7857 134.778 24.3083 135.776 23.3967C135.776 23.3967 135.863 24.0044 136.167 24.4819H139.205C138.858 23.8308 138.771 23.0495 138.771 22.3115Z" fill="#555555"/>
</svg>
