<svg width="182" height="61" viewBox="0 0 182 61" fill="none" xmlns="http://www.w3.org/2000/svg">
<path d="M145.605 25.7637V45.4374H155.587V31.4716C155.519 29.0686 155.766 26.667 156.321 24.3281L145.605 25.7637Z" fill="#FA4616"/>
<path d="M176.778 21.6408L181.748 8.86523L180.63 9.09901L170.413 11.2837C162.805 12.9053 158.559 17.1348 157.348 24.1909L176.778 21.6408Z" fill="#FA4616"/>
<path d="M24.0325 15.1465L18.0102 34.6127H17.8324L11.0726 15.1465H-0.00390625L12.6514 44.9451L11.4694 47.9875C10.4816 50.6035 9.45097 52.0638 6.35587 52.0638C5.65059 52.049 4.94854 51.9641 4.26009 51.8103L1.19298 59.6863C1.59633 59.8098 2.05401 59.925 2.54461 60.0304L2.69443 60.0633C4.27849 60.3912 5.89074 60.5638 7.5083 60.5786C15.1176 60.5786 18.3988 56.8727 20.8337 50.536L34.6102 15.1465H24.0325Z" fill="#FA4616"/>
<path d="M52.5155 37.9535C52.1847 37.9962 51.8514 38.0177 51.5179 38.0177C46.8275 38.0177 44.3349 34.0666 44.3349 30.173C44.3349 26.2794 46.7764 22.4451 51.4586 22.4451C52.4497 22.4495 53.4294 22.6562 54.3379 23.0525C55.2463 23.4488 56.0642 24.0264 56.7416 24.7499C57.419 25.4734 57.9416 26.3275 58.2773 27.26C58.6131 28.1925 58.7549 29.1837 58.6942 30.173C58.7161 32.1582 58.0448 34.0888 56.796 35.6322L68.0371 33.2928C68.2168 32.2598 68.306 31.2132 68.3038 30.1647C68.3038 20.2489 60.6369 14.1641 51.4586 14.1641C42.333 14.1641 34.666 20.2555 34.666 30.1647C34.666 40.074 42.3346 46.4058 51.4586 46.4058C54.8555 46.5388 58.2092 45.6078 61.0514 43.7428C63.8936 41.8777 66.0826 39.1718 67.3127 36.0026L52.5155 37.9535Z" fill="#FA4616"/>
<path d="M82.8264 30.2581V29.0184C82.8264 25.5528 84.6506 22.5088 88.1787 22.5088C91.5191 22.5088 92.5431 25.1429 92.6682 28.21L102.711 26.1225C102.526 20.227 99.54 14.2985 91.6508 14.2985C89.8283 14.2659 88.0297 14.716 86.4374 15.6031C84.8451 16.4902 83.5158 17.7827 82.5844 19.3495H82.4642V15.1464H72.7871V32.3456L82.8264 30.2581Z" fill="#FA4616"/>
<path d="M72.7812 35.3165V45.4381H82.8239V33.9961L72.7812 35.3165Z" fill="#FA4616"/>
<path d="M92.6855 32.7009V45.4386H102.72V31.3789L92.6855 32.7009Z" fill="#FA4616"/>
<path d="M130.623 27.7056C130.888 28.5215 131.023 29.3735 131.025 30.2311C131.068 31.2246 130.912 32.2166 130.566 33.149C130.221 34.0814 129.692 34.9353 129.012 35.6605C128.331 36.3858 127.513 36.9678 126.605 37.3724C125.696 37.777 124.716 37.996 123.722 38.0166C118.982 38.0166 116.547 34.123 116.547 30.1718C116.547 29.9644 116.556 29.7586 116.569 29.5528L106.949 30.8172C107.211 39.0143 112.463 46.2927 121.356 46.2927C123.274 46.3598 125.179 45.957 126.906 45.1194C128.632 44.2818 130.128 43.0349 131.262 41.4871H131.391V45.4382H140.576V26.3984L130.623 27.7056Z" fill="#FA4616"/>
<path d="M140.576 18.2315V0H130.602V18.3698H130.474C129.324 17.0565 127.901 16.0109 126.304 15.3067C124.707 14.6025 122.975 14.2566 121.23 14.2934C118.077 14.2917 115.017 15.3572 112.548 17.3165C110.079 19.2758 108.346 22.0134 107.631 25.0835L140.576 18.2315Z" fill="#FA4616"/>
</svg>
