<svg width="156" height="59" viewBox="0 0 156 59" fill="none" xmlns="http://www.w3.org/2000/svg">
<path d="M38.4404 1.08984V10.4581H10.3307V25.6753H35.316V35.0436H10.3307V57.8669H0V1.08984H38.4404Z" fill="#040404"/>
<path d="M98.2532 25.6765H79.7092V6.61914H69.7881V25.6765H51.2441V35.0644H69.7881V55.4002H79.7092V35.0644H98.2532V25.6765Z" fill="#040404"/>
<path d="M110.41 39.936H121.136C121.215 46.1008 126.417 50.1038 133.461 50.1038C140.504 50.1038 145.548 47.3842 145.548 41.6191C145.548 37.5371 142.187 35.6171 138.263 34.9754L127.38 33.2133C118.016 31.6931 111.93 26.7276 111.93 17.5272C111.93 7.28038 122.335 0 133.54 0C145.307 0 154.912 7.12243 155.07 17.6111H144.502C144.26 12.1669 139.542 8.80556 133.377 8.80556C127.612 8.80556 122.251 11.4462 122.251 16.8115C122.251 20.2518 125.055 22.4927 129.137 23.1343L139.704 24.8175C148.989 26.2587 155.953 31.5401 155.953 41.0663C155.953 52.3546 145.785 58.9982 133.303 58.9982C120.82 58.9982 110.41 51.6339 110.41 39.9458V39.936Z" fill="#040404"/>
</svg>
