<svg width="46" height="38" viewBox="0 0 46 38" fill="none" xmlns="http://www.w3.org/2000/svg">
<path d="M0 37.5V31.6667C0 30.5208 0.295139 29.4444 0.885417 28.4375C1.47569 27.4306 2.29167 26.6667 3.33333 26.1458C5.10417 25.2431 7.10069 24.4792 9.32292 23.8542C11.5451 23.2292 13.9931 22.9167 16.6667 22.9167C19.3403 22.9167 21.7882 23.2292 24.0104 23.8542C26.2326 24.4792 28.2292 25.2431 30 26.1458C31.0417 26.6667 31.8576 27.4306 32.4479 28.4375C33.0382 29.4444 33.3333 30.5208 33.3333 31.6667V37.5H0ZM4.16667 33.3333H29.1667V31.6667C29.1667 31.2847 29.0712 30.9375 28.8802 30.625C28.6892 30.3125 28.4375 30.0694 28.125 29.8958C26.875 29.2708 25.2691 28.6458 23.3073 28.0208C21.3455 27.3958 19.1319 27.0833 16.6667 27.0833C14.2014 27.0833 11.9878 27.3958 10.026 28.0208C8.06424 28.6458 6.45833 29.2708 5.20833 29.8958C4.89583 30.0694 4.6441 30.3125 4.45312 30.625C4.26215 30.9375 4.16667 31.2847 4.16667 31.6667V33.3333ZM16.6667 20.8333C14.375 20.8333 12.4132 20.0174 10.7812 18.3854C9.14931 16.7535 8.33333 14.7917 8.33333 12.5H7.8125C7.5 12.5 7.24826 12.4045 7.05729 12.2135C6.86632 12.0226 6.77083 11.7708 6.77083 11.4583C6.77083 11.1458 6.86632 10.8941 7.05729 10.7031C7.24826 10.5122 7.5 10.4167 7.8125 10.4167H8.33333C8.33333 8.85417 8.71528 7.44792 9.47917 6.19792C10.2431 4.94792 11.25 3.95833 12.5 3.22917V5.20833C12.5 5.52083 12.5955 5.77257 12.7865 5.96354C12.9774 6.15451 13.2292 6.25 13.5417 6.25C13.8542 6.25 14.1059 6.15451 14.2969 5.96354C14.4878 5.77257 14.5833 5.52083 14.5833 5.20833V2.39583C14.8958 2.29167 15.2257 2.21354 15.5729 2.16146C15.9201 2.10938 16.2847 2.08333 16.6667 2.08333C17.0486 2.08333 17.4132 2.10938 17.7604 2.16146C18.1076 2.21354 18.4375 2.29167 18.75 2.39583V5.20833C18.75 5.52083 18.8455 5.77257 19.0365 5.96354C19.2274 6.15451 19.4792 6.25 19.7917 6.25C20.1042 6.25 20.3559 6.15451 20.5469 5.96354C20.7378 5.77257 20.8333 5.52083 20.8333 5.20833V3.22917C22.0833 3.95833 23.0903 4.94792 23.8542 6.19792C24.6181 7.44792 25 8.85417 25 10.4167H25.5208C25.8333 10.4167 26.0851 10.5122 26.276 10.7031C26.467 10.8941 26.5625 11.1458 26.5625 11.4583C26.5625 11.7708 26.467 12.0226 26.276 12.2135C26.0851 12.4045 25.8333 12.5 25.5208 12.5H25C25 14.7917 24.184 16.7535 22.5521 18.3854C20.9201 20.0174 18.9583 20.8333 16.6667 20.8333ZM16.6667 16.6667C17.8125 16.6667 18.7934 16.2587 19.6094 15.4427C20.4253 14.6267 20.8333 13.6458 20.8333 12.5H12.5C12.5 13.6458 12.908 14.6267 13.724 15.4427C14.5399 16.2587 15.5208 16.6667 16.6667 16.6667ZM32.2917 25L31.9792 23.4375C31.7708 23.3681 31.5712 23.2899 31.3802 23.2031C31.1892 23.1163 31.0069 22.9861 30.8333 22.8125L29.375 23.3333L28.3333 21.4583L29.4792 20.4167V19.1667L28.3333 18.125L29.375 16.25L30.8333 16.7708C30.9722 16.6319 31.1458 16.5104 31.3542 16.4062C31.5625 16.3021 31.7708 16.2153 31.9792 16.1458L32.2917 14.5833H34.375L34.6875 16.1458C34.8958 16.2153 35.1042 16.3021 35.3125 16.4062C35.5208 16.5104 35.6944 16.6319 35.8333 16.7708L37.2917 16.25L38.3333 18.125L37.1875 19.1667V20.4167L38.3333 21.4583L37.2917 23.3333L35.8333 22.8125C35.6597 22.9861 35.4774 23.1163 35.2865 23.2031C35.0955 23.2899 34.8958 23.3681 34.6875 23.4375L34.375 25H32.2917ZM33.3333 21.3542C33.75 21.3542 34.1146 21.1979 34.4271 20.8854C34.7396 20.5729 34.8958 20.2083 34.8958 19.7917C34.8958 19.375 34.7396 19.0104 34.4271 18.6979C34.1146 18.3854 33.75 18.2292 33.3333 18.2292C32.9167 18.2292 32.5521 18.3854 32.2396 18.6979C31.9271 19.0104 31.7708 19.375 31.7708 19.7917C31.7708 20.2083 31.9271 20.5729 32.2396 20.8854C32.5521 21.1979 32.9167 21.3542 33.3333 21.3542ZM37.0833 14.5833L36.6667 12.3958C36.3542 12.2917 36.0677 12.1615 35.8073 12.0052C35.5469 11.849 35.3125 11.6667 35.1042 11.4583L32.9167 12.1875L31.4583 9.6875L33.2292 8.125C33.1597 7.95139 33.125 7.8125 33.125 7.70833V6.875C33.125 6.77083 33.1597 6.63194 33.2292 6.45833L31.4583 4.89583L32.9167 2.39583L35.1042 3.125C35.3125 2.91667 35.5469 2.73438 35.8073 2.57812C36.0677 2.42188 36.3542 2.29167 36.6667 2.1875L37.0833 0H40L40.4167 2.1875C40.7292 2.29167 41.0156 2.42188 41.276 2.57812C41.5365 2.73438 41.7708 2.91667 41.9792 3.125L44.1667 2.39583L45.625 4.89583L43.8542 6.45833C43.9236 6.63194 43.9583 6.77083 43.9583 6.875V7.70833C43.9583 7.8125 43.9236 7.95139 43.8542 8.125L45.625 9.6875L44.1667 12.1875L41.9792 11.4583C41.7708 11.6667 41.5365 11.849 41.276 12.0052C41.0156 12.1615 40.7292 12.2917 40.4167 12.3958L40 14.5833H37.0833ZM38.5417 9.89583C39.2708 9.89583 39.8872 9.6441 40.3906 9.14062C40.8941 8.63715 41.1458 8.02083 41.1458 7.29167C41.1458 6.5625 40.8941 5.94618 40.3906 5.44271C39.8872 4.93924 39.2708 4.6875 38.5417 4.6875C37.8125 4.6875 37.1962 4.93924 36.6927 5.44271C36.1892 5.94618 35.9375 6.5625 35.9375 7.29167C35.9375 8.02083 36.1892 8.63715 36.6927 9.14062C37.1962 9.6441 37.8125 9.89583 38.5417 9.89583Z" fill="black"/>
</svg>
