<svg width="32" height="42" viewBox="0 0 32 42" fill="none" xmlns="http://www.w3.org/2000/svg">
<path d="M15.625 41.6667C14.4792 41.6667 13.4983 41.2587 12.6823 40.4427C11.8663 39.6267 11.4583 38.6458 11.4583 37.5H19.7917C19.7917 38.6458 19.3837 39.6267 18.5677 40.4427C17.7517 41.2587 16.7708 41.6667 15.625 41.6667ZM7.29167 35.4167V31.25H23.9583V35.4167H7.29167ZM7.8125 29.1667C5.41667 27.7431 3.51562 25.8333 2.10938 23.4375C0.703125 21.0417 0 18.4375 0 15.625C0 11.2847 1.5191 7.59549 4.55729 4.55729C7.59549 1.5191 11.2847 0 15.625 0C19.9653 0 23.6545 1.5191 26.6927 4.55729C29.7309 7.59549 31.25 11.2847 31.25 15.625C31.25 18.4375 30.5469 21.0417 29.1406 23.4375C27.7344 25.8333 25.8333 27.7431 23.4375 29.1667H7.8125ZM9.0625 25H22.1875C23.75 23.8889 24.9566 22.5174 25.8073 20.8854C26.658 19.2535 27.0833 17.5 27.0833 15.625C27.0833 12.4306 25.9722 9.72222 23.75 7.5C21.5278 5.27778 18.8194 4.16667 15.625 4.16667C12.4306 4.16667 9.72222 5.27778 7.5 7.5C5.27778 9.72222 4.16667 12.4306 4.16667 15.625C4.16667 17.5 4.59201 19.2535 5.44271 20.8854C6.2934 22.5174 7.5 23.8889 9.0625 25Z" fill="black"/>
</svg>
