<svg width="50" height="44" viewBox="0 0 50 44" fill="none" xmlns="http://www.w3.org/2000/svg">
<path d="M29.3893 44V29.2704C29.3893 21.2132 30.9796 14.6037 34.1603 9.44205C37.4682 4.2804 42.7481 1.13305 50 0V7.74248C45.6743 8.24606 42.6209 9.88268 40.8397 12.6524C39.0585 15.422 38.1679 19.8283 38.1679 25.8712L32.4427 25.1159H49.8092V44H29.3893ZM0 44V29.2704C0 21.2132 1.59033 14.6037 4.77099 9.44205C8.07888 4.2804 13.3588 1.13305 20.6107 0V7.74248C16.285 8.24606 13.2316 9.88268 11.4504 12.6524C9.66921 15.422 8.77863 19.8283 8.77863 25.8712L3.05344 25.1159H20.4198V44H0Z" fill="#E6FFBD"/>
</svg>
